<svg width="137" height="54" viewBox="0 0 137 54" fill="none" xmlns="http://www.w3.org/2000/svg">
<path d="M54.5 17.6477V15.3636H64.3352V17.6477H60.8068V27H58.0341V17.6477H54.5ZM64.6106 27V18.2727H67.3094V19.8636H67.4003C67.5594 19.2879 67.8189 18.8598 68.1787 18.5795C68.5386 18.2955 68.9571 18.1534 69.4344 18.1534C69.5632 18.1534 69.6958 18.1629 69.8321 18.1818C69.9685 18.197 70.0954 18.2216 70.2128 18.2557V20.6705C70.0803 20.625 69.906 20.589 69.6901 20.5625C69.478 20.536 69.2886 20.5227 69.1219 20.5227C68.7924 20.5227 68.495 20.5966 68.2299 20.7443C67.9685 20.8883 67.7621 21.0909 67.6106 21.3523C67.4628 21.6098 67.389 21.9129 67.389 22.2614V27H64.6106ZM71.1529 27V18.2727H73.9313V27H71.1529ZM72.545 17.2557C72.1548 17.2557 71.8196 17.1269 71.5393 16.8693C71.259 16.608 71.1188 16.2936 71.1188 15.9261C71.1188 15.5625 71.259 15.2519 71.5393 14.9943C71.8196 14.733 72.1548 14.6023 72.545 14.6023C72.9389 14.6023 73.2741 14.733 73.5507 14.9943C73.831 15.2519 73.9711 15.5625 73.9711 15.9261C73.9711 16.2936 73.831 16.608 73.5507 16.8693C73.2741 17.1269 72.9389 17.2557 72.545 17.2557ZM83.9737 18.2727L80.9794 27H77.7976L74.8089 18.2727H77.7351L79.343 24.2841H79.4339L81.0476 18.2727H83.9737ZM84.8471 27V18.2727H87.6255V27H84.8471ZM86.2391 17.2557C85.849 17.2557 85.5137 17.1269 85.2334 16.8693C84.9531 16.608 84.813 16.2936 84.813 15.9261C84.813 15.5625 84.9531 15.2519 85.2334 14.9943C85.5137 14.733 85.849 14.6023 86.2391 14.6023C86.633 14.6023 86.9683 14.733 87.2448 14.9943C87.5251 15.2519 87.6652 15.5625 87.6652 15.9261C87.6652 16.2936 87.5251 16.608 87.2448 16.8693C86.9683 17.1269 86.633 17.2557 86.2391 17.2557ZM91.6622 27.1477C91.1053 27.1477 90.611 27.0549 90.1792 26.8693C89.7512 26.6799 89.4122 26.3958 89.1622 26.017C88.9159 25.6345 88.7928 25.1553 88.7928 24.5795C88.7928 24.0947 88.8781 23.6856 89.0485 23.3523C89.219 23.0189 89.4538 22.7481 89.7531 22.5398C90.0523 22.3314 90.397 22.1742 90.7872 22.0682C91.1773 21.9583 91.594 21.8845 92.0372 21.8466C92.5334 21.8011 92.933 21.7538 93.236 21.7045C93.5391 21.6515 93.7588 21.5777 93.8951 21.483C94.0353 21.3845 94.1053 21.2462 94.1053 21.0682V21.0398C94.1053 20.7481 94.005 20.5227 93.8042 20.3636C93.6034 20.2045 93.3326 20.125 92.9917 20.125C92.6243 20.125 92.3288 20.2045 92.1053 20.3636C91.8819 20.5227 91.7398 20.7424 91.6792 21.0227L89.1167 20.9318C89.1925 20.4015 89.3875 19.928 89.7019 19.5114C90.0201 19.0909 90.4557 18.7614 91.0088 18.5227C91.5656 18.2803 92.2341 18.1591 93.0144 18.1591C93.5713 18.1591 94.0845 18.2254 94.5542 18.358C95.0239 18.4867 95.433 18.6761 95.7815 18.9261C96.13 19.1723 96.3989 19.4754 96.5883 19.8352C96.7815 20.1951 96.8781 20.6061 96.8781 21.0682V27H94.2644V25.7841H94.1963C94.0409 26.0795 93.8421 26.3295 93.5997 26.5341C93.361 26.7386 93.0788 26.892 92.7531 26.9943C92.4311 27.0966 92.0675 27.1477 91.6622 27.1477ZM92.5201 25.3295C92.8194 25.3295 93.0883 25.2689 93.3269 25.1477C93.5694 25.0265 93.7625 24.8598 93.9065 24.6477C94.0504 24.4318 94.1224 24.1818 94.1224 23.8977V23.0682C94.0428 23.1098 93.9463 23.1477 93.8326 23.1818C93.7228 23.2159 93.6016 23.2481 93.469 23.2784C93.3364 23.3087 93.2 23.3352 93.0599 23.358C92.9197 23.3807 92.7853 23.4015 92.6565 23.4205C92.3951 23.4621 92.1716 23.5265 91.986 23.6136C91.8042 23.7008 91.6641 23.8144 91.5656 23.9545C91.4709 24.0909 91.4235 24.2538 91.4235 24.4432C91.4235 24.7311 91.5258 24.9508 91.7303 25.1023C91.9387 25.2538 92.2019 25.3295 92.5201 25.3295Z" fill="#0F172A"/>
<path d="M48.1705 36.8523C48.1326 36.4356 47.964 36.1117 47.6648 35.8807C47.3693 35.6458 46.947 35.5284 46.3977 35.5284C46.0341 35.5284 45.7311 35.5758 45.4886 35.6705C45.2462 35.7652 45.0644 35.8958 44.9432 36.0625C44.822 36.2254 44.7595 36.4129 44.7557 36.625C44.7481 36.7992 44.7822 36.9527 44.858 37.0852C44.9375 37.2178 45.0511 37.3352 45.1989 37.4375C45.3504 37.536 45.5322 37.6231 45.7443 37.6989C45.9564 37.7746 46.1951 37.8409 46.4602 37.8977L47.4602 38.125C48.036 38.25 48.5436 38.4167 48.983 38.625C49.4261 38.8333 49.7973 39.0814 50.0966 39.3693C50.3996 39.6572 50.6288 39.9886 50.7841 40.3636C50.9394 40.7386 51.0189 41.1591 51.0227 41.625C51.0189 42.3598 50.8333 42.9905 50.4659 43.517C50.0985 44.0436 49.5701 44.447 48.8807 44.7273C48.1951 45.0076 47.3674 45.1477 46.3977 45.1477C45.4242 45.1477 44.5758 45.0019 43.8523 44.7102C43.1288 44.4186 42.5663 43.9754 42.1648 43.3807C41.7633 42.786 41.5568 42.0341 41.5455 41.125H44.2386C44.2614 41.5 44.3617 41.8125 44.5398 42.0625C44.7178 42.3125 44.9621 42.5019 45.2727 42.6307C45.5871 42.7595 45.9508 42.8239 46.3636 42.8239C46.7424 42.8239 47.0644 42.7727 47.3295 42.6705C47.5985 42.5682 47.8049 42.4261 47.9489 42.2443C48.0928 42.0625 48.1667 41.8542 48.1705 41.6193C48.1667 41.3996 48.0985 41.2121 47.9659 41.0568C47.8333 40.8977 47.6288 40.7614 47.3523 40.6477C47.0795 40.5303 46.7311 40.4223 46.3068 40.3239L45.0909 40.0398C44.0833 39.8087 43.2898 39.4356 42.7102 38.9205C42.1307 38.4015 41.8428 37.7008 41.8466 36.8182C41.8428 36.0985 42.036 35.4678 42.4261 34.9261C42.8163 34.3845 43.3561 33.9621 44.0455 33.6591C44.7348 33.3561 45.5208 33.2045 46.4034 33.2045C47.3049 33.2045 48.0871 33.358 48.75 33.6648C49.4167 33.9678 49.9337 34.3939 50.3011 34.9432C50.6686 35.4924 50.8561 36.1288 50.8636 36.8523H48.1705ZM52.2512 48.2727V36.2727H55.0012V37.767H55.0864C55.2 37.5019 55.361 37.2462 55.5694 37C55.7815 36.7538 56.0504 36.553 56.3762 36.3977C56.7057 36.2386 57.0997 36.1591 57.558 36.1591C58.1641 36.1591 58.7303 36.3182 59.2569 36.6364C59.7872 36.9545 60.2152 37.4451 60.541 38.108C60.8667 38.7708 61.0296 39.6155 61.0296 40.642C61.0296 41.6307 60.8724 42.4583 60.558 43.125C60.2474 43.7917 59.8269 44.2917 59.2966 44.625C58.7701 44.9583 58.1849 45.125 57.541 45.125C57.1016 45.125 56.7209 45.053 56.3989 44.9091C56.0769 44.7652 55.8061 44.5758 55.5864 44.3409C55.3705 44.1061 55.2038 43.8542 55.0864 43.5852H55.0296V48.2727H52.2512ZM54.9728 40.6364C54.9728 41.1061 55.0353 41.5152 55.1603 41.8636C55.2891 42.2121 55.4728 42.483 55.7114 42.6761C55.9538 42.8655 56.2436 42.9602 56.5807 42.9602C56.9216 42.9602 57.2114 42.8655 57.45 42.6761C57.6887 42.483 57.8686 42.2121 57.9898 41.8636C58.1148 41.5152 58.1773 41.1061 58.1773 40.6364C58.1773 40.1667 58.1148 39.7595 57.9898 39.4148C57.8686 39.0701 57.6887 38.803 57.45 38.6136C57.2152 38.4242 56.9254 38.3295 56.5807 38.3295C56.2398 38.3295 55.95 38.4223 55.7114 38.608C55.4728 38.7936 55.2891 39.0587 55.1603 39.4034C55.0353 39.7481 54.9728 40.1591 54.9728 40.6364ZM64.7538 45.1477C64.197 45.1477 63.7026 45.0549 63.2708 44.8693C62.8428 44.6799 62.5038 44.3958 62.2538 44.017C62.0076 43.6345 61.8845 43.1553 61.8845 42.5795C61.8845 42.0947 61.9697 41.6856 62.1401 41.3523C62.3106 41.0189 62.5455 40.7481 62.8447 40.5398C63.1439 40.3314 63.4886 40.1742 63.8788 40.0682C64.2689 39.9583 64.6856 39.8845 65.1288 39.8466C65.625 39.8011 66.0246 39.7538 66.3276 39.7045C66.6307 39.6515 66.8504 39.5777 66.9867 39.483C67.1269 39.3845 67.197 39.2462 67.197 39.0682V39.0398C67.197 38.7481 67.0966 38.5227 66.8958 38.3636C66.6951 38.2045 66.4242 38.125 66.0833 38.125C65.7159 38.125 65.4205 38.2045 65.197 38.3636C64.9735 38.5227 64.8314 38.7424 64.7708 39.0227L62.2083 38.9318C62.2841 38.4015 62.4792 37.928 62.7936 37.5114C63.1117 37.0909 63.5473 36.7614 64.1004 36.5227C64.6572 36.2803 65.3258 36.1591 66.1061 36.1591C66.6629 36.1591 67.1761 36.2254 67.6458 36.358C68.1155 36.4867 68.5246 36.6761 68.8731 36.9261C69.2216 37.1723 69.4905 37.4754 69.6799 37.8352C69.8731 38.1951 69.9697 38.6061 69.9697 39.0682V45H67.3561V43.7841H67.2879C67.1326 44.0795 66.9337 44.3295 66.6913 44.5341C66.4526 44.7386 66.1705 44.892 65.8447 44.9943C65.5227 45.0966 65.1591 45.1477 64.7538 45.1477ZM65.6117 43.3295C65.911 43.3295 66.1799 43.2689 66.4186 43.1477C66.661 43.0265 66.8542 42.8598 66.9981 42.6477C67.142 42.4318 67.214 42.1818 67.214 41.8977V41.0682C67.1345 41.1098 67.0379 41.1477 66.9242 41.1818C66.8144 41.2159 66.6932 41.2481 66.5606 41.2784C66.428 41.3087 66.2917 41.3352 66.1515 41.358C66.0114 41.3807 65.8769 41.4015 65.7481 41.4205C65.4867 41.4621 65.2633 41.5265 65.0776 41.6136C64.8958 41.7008 64.7557 41.8144 64.6572 41.9545C64.5625 42.0909 64.5151 42.2538 64.5151 42.4432C64.5151 42.7311 64.6174 42.9508 64.822 43.1023C65.0303 43.2538 65.2936 43.3295 65.6117 43.3295ZM71.4766 45V36.2727H74.1754V37.8636H74.2663C74.4254 37.2879 74.6849 36.8598 75.0447 36.5795C75.4046 36.2955 75.8231 36.1534 76.3004 36.1534C76.4292 36.1534 76.5618 36.1629 76.6981 36.1818C76.8345 36.197 76.9614 36.2216 77.0788 36.2557V38.6705C76.9463 38.625 76.772 38.589 76.5561 38.5625C76.344 38.536 76.1546 38.5227 75.9879 38.5227C75.6584 38.5227 75.361 38.5966 75.0959 38.7443C74.8345 38.8883 74.6281 39.0909 74.4766 39.3523C74.3288 39.6098 74.255 39.9129 74.255 40.2614V45H71.4766ZM80.5246 42.7102L80.536 39.3977H80.9223L83.3769 36.2727H86.5246L82.8769 40.75H82.1439L80.5246 42.7102ZM78.0189 45V33.3636H80.7973V45H78.0189ZM83.4394 45L81.1553 41.375L82.9848 39.4034L86.6496 45H83.4394Z" fill="#0F172A"/>
<path d="M102.555 45H94.0324L103.635 15.9091H114.43L124.032 45H115.51L109.146 23.9205H108.919L102.555 45ZM100.964 33.5227H116.987V39.4318H100.964V33.5227ZM134.252 15.9091V45H126.354V15.9091H134.252Z" fill="#0F172A"/>
<rect x="0.7056" y="34.3381" width="51" height="25" rx="10.5" transform="rotate(-41.2589 0.7056 34.3381)" fill="white" stroke="#0F172A"/>
<path d="M27.0927 40.1736C27.0927 40.1736 26.9683 40.1692 26.7194 40.1605C26.4706 40.1518 26.15 40.1422 25.7576 40.1316C25.3803 40.1221 24.9729 40.1105 24.5354 40.097C24.1129 40.0845 23.713 40.0735 23.3357 40.064C23.0187 40.8671 22.5955 41.5008 22.0663 41.9651C21.6092 42.366 21.0297 42.6758 20.3275 42.8945C19.6264 43.098 18.8654 43.1768 18.0445 43.1307C17.2236 43.0846 16.4096 42.8764 15.6024 42.5061C14.7951 42.1359 14.0574 41.5699 13.3891 40.8081C12.8686 40.2147 12.4749 39.5881 12.2082 38.9282C11.9424 38.2532 11.786 37.5816 11.739 36.9134C11.692 36.2451 11.7338 35.6054 11.8645 34.9941C11.9882 34.3749 12.1831 33.8207 12.4494 33.3317C12.7167 32.8276 13.0348 32.4138 13.4036 32.0902C13.7644 31.7737 14.2081 31.5193 14.7347 31.3269C15.2693 31.1276 15.8476 31.0104 16.4697 30.9755C17.0928 30.9256 17.7325 30.9674 18.3889 31.101C19.0453 31.2347 19.6833 31.4767 20.3029 31.8271C20.9225 32.1775 21.4925 32.6494 22.0131 33.2428C22.7517 34.0847 23.2445 34.9862 23.4915 35.9472C23.7396 36.8931 23.8015 37.7966 23.6771 38.6577L27.1708 40.0199L27.0927 40.1736ZM19.1829 39.9398L20.0193 37.2054L22.2299 38.0755C22.1321 37.7215 21.9782 37.3599 21.768 36.9909C21.5588 36.6069 21.2924 36.2304 20.9688 35.8616C20.2583 35.0517 19.5471 34.427 18.8351 33.9874C18.1161 33.5397 17.4324 33.2456 16.784 33.1049C16.1356 32.9643 15.5551 32.9414 15.0424 33.0364C14.5378 33.1243 14.1372 33.2985 13.8405 33.5587C13.4716 33.8823 13.2479 34.2985 13.1693 34.8073C13.0836 35.3082 13.1425 35.8525 13.3459 36.4402C13.5574 37.0209 13.9199 37.604 14.4334 38.1893C15.186 39.0473 15.9254 39.7041 16.6515 40.1598C17.3856 40.6084 18.0733 40.899 18.7146 41.0316C19.364 41.1572 19.9415 41.1685 20.4471 41.0655C20.9457 40.9545 21.3433 40.7689 21.64 40.5086C21.8004 40.3679 21.9316 40.2102 22.0337 40.0355L19.1829 39.9398ZM26.335 20.9803L26.4914 20.8431L32.3871 26.7388C32.4152 26.7709 32.4468 26.807 32.482 26.8471C32.5182 26.8721 32.5538 26.9047 32.589 26.9448C33.1447 27.5782 33.4722 28.2913 33.5716 29.0839C33.6639 29.8684 33.5445 30.6543 33.2133 31.4414C32.8902 32.2215 32.3759 32.921 31.6702 33.54C30.9165 34.2013 30.1343 34.6036 29.3237 34.7471C28.5211 34.8836 27.7474 34.8104 27.0025 34.5273C26.2656 34.2373 25.6108 33.7901 25.0381 33.1857L19.4163 27.2626L21.6414 25.3106L26.5774 31.6651C26.6196 31.7132 26.6578 31.7648 26.692 31.82C26.7272 31.8601 26.7623 31.9001 26.7975 31.9402C27.4517 32.686 28.1526 33.1211 28.9004 33.2455C29.641 33.362 30.3041 33.1635 30.8894 32.65C31.2102 32.3686 31.4008 31.9956 31.4615 31.5309C31.5231 31.0512 31.4672 30.5184 31.2939 29.9327C31.1215 29.3318 30.8483 28.713 30.4742 28.0763L26.335 20.9803ZM37.6125 27.9015L29.0457 18.8152L31.3069 16.8315L39.2002 26.5087L37.6125 27.9015ZM41.7588 24.4983L39.9828 23.3958L38.1497 11.7226L35.0257 17.0172L33.3164 15.0687L40.2925 8.94891L41.4633 21.7352L47.7583 17.3623L47.906 17.5306L41.7588 24.4983Z" fill="#0F172A"/>
</svg>
